<svg version="1.2" xmlns="http://www.w3.org/2000/svg" viewBox="0 0 1500 1000" width="1500" height="1000">
	<title>10088966-ai</title>
	<defs>
		<clipPath clipPathUnits="userSpaceOnUse" id="cp1">
			<path d="m1500 1000h-1500v-1000h1500z"/>
		</clipPath>
		<clipPath clipPathUnits="userSpaceOnUse" id="cp2">
			<path d="m1500 1000h-1500v-1000h1500z"/>
		</clipPath>
	</defs>
	<style>
		.s0 { fill: #2a4a2f } 
		.s1 { fill: #335938 } 
		.s2 { fill: #f9f3e7 } 
		.s3 { fill: #f3ece1 } 
		.s4 { fill: #d6c7b1 } 
		.s5 { fill: #a9b92c } 
		.s6 { fill: #4c8661 } 
		.s7 { fill: #4d8861 } 
		.s8 { fill: #121f10 } 
		.s9 { fill: #e59b25 } 
		.s10 { fill: #bf4317 } 
		.s11 { fill: #bf3d0f } 
		.s12 { fill: #1f3720 } 
		.s13 { fill: #233d26 } 
		.s14 { fill: #db4711 } 
		.s15 { fill: #da5728 } 
		.s16 { fill: #a7b72c } 
		.s17 { opacity: .5;mix-blend-mode: multiply;fill: #a7b72c } 
	</style>
	<g id="BACKGROUND">
		<g id="&lt;Group&gt;">
			<path id="&lt;Path&gt;" class="s0" d="m1500 1000h-1500v-1000h1500z"/>
		</g>
	</g>
	<g id="OBJECTS">
		<g id="&lt;Clip Group&gt;" clip-path="url(#cp1)">
			<g id="&lt;Group&gt;">
				<g id="&lt;Group&gt;">
					<path id="&lt;Path&gt;" class="s1" d="m1511.1 1004.5v-995.9c-40.1 11.3-82.3 36.7-97 69.4-19.3 43.1-12.2 96.9 17.6 133.6-23.1-5.4-49 6.7-59.8 27.7-10.7 21.1-5.3 49.3 12.6 64.8-70 16.5-130.9 68-158.8 134.4-27.9 66.3-22.1 145.9 15.1 207.5-91.3-15.7-187.9-18.6-274 15.5-86.2 34.2-159.5 111.7-167.7 204-16.2-12.7-44.7 1.5-44.5 22.2-24.1-12.5-56.3-6.5-74.4 13.8-18 20.3-20.2 53-5 75.5-46.1-45.1-120.2-58.9-179.5-33.4-23.7 11.8-51.5 34.6-69.6 60.9z"/>
				</g>
				<g id="&lt;Group&gt;">
					<path id="&lt;Path&gt;" class="s1" d="m-5.1-4.9v781c62.2 6.7 125.7-24.6 166.1-72.9 43-51.4 62.5-119.2 66.6-186.1 4.1-66.9-6-133.7-16.1-199.9 91.7 65.5 217.6 80.1 322 37.3 104.3-42.7 183.7-141.5 203-252.6 8 11.3 25.7 14.4 37.1 6.4 11.4-8 14.5-25.6 6.6-37.1 36.2 14.3 79.9 7.2 109.7-17.7 17.9-14.9 30.3-35.8 35.9-58.4z"/>
				</g>
				<g id="&lt;Group&gt;">
					<path id="&lt;Path&gt;" class="s1" d="m1353.4 155.6c0 18.7-12.1 33.8-27.1 33.8-15 0-27.1-15.1-27.1-33.8 0-18.7 12.1-33.8 27.1-33.8 15 0 27.1 15.1 27.1 33.8z"/>
				</g>
				<g id="&lt;Group&gt;">
					<path id="&lt;Path&gt;" class="s1" d="m351.6 444.4c9.3 16.2 5.9 35.7-7.7 43.6-13.5 7.8-32.1 1-41.5-15.2-9.4-16.2-5.9-35.7 7.6-43.5 13.6-7.9 32.2-1.1 41.6 15.1z"/>
				</g>
				<g id="&lt;Group&gt;">
					<path id="&lt;Path&gt;" class="s1" d="m753.6 769.5c10.3 10.2 8.2 28.8-4.6 41.5-12.7 12.8-31.3 14.9-41.5 4.7-10.2-10.2-8.2-28.9 4.6-41.6 12.7-12.8 31.3-14.8 41.5-4.6z"/>
				</g>
			</g>
		</g>
		<g id="&lt;Group&gt;">
			<g id="&lt;Group&gt;">
			</g>
			<g id="&lt;Group&gt;">
				<g id="&lt;Group&gt;">
					<g id="&lt;Group&gt;">
						<g id="&lt;Group&gt;">
							<path id="&lt;Compound Path&gt;" class="s2" d="m918 985.3h-1.8q0-2.3-0.2-4.5-0.2-2.1-0.6-4.1l1.8-0.3q0.3 2.1 0.5 4.2 0.2 2.3 0.3 4.7zm-4.6-17.1c-0.8-2.8-1.9-5.5-3.1-8.2l1.6-0.7c1.3 2.7 2.3 5.5 3.2 8.4zm-7.2-15.9c-1.6-2.4-3.3-4.8-5.1-7l1.4-1.2c1.8 2.3 3.6 4.8 5.2 7.3zm-11-13.5c-2.1-2-4.4-3.9-6.7-5.5l1-1.5c2.4 1.8 4.7 3.7 6.9 5.8zm-94.7 2.1c-1.3-2.6-2.7-5.2-4.2-7.7l1.5-0.9c1.5 2.6 2.9 5.2 4.2 7.8zm7.3-3.5l-1.1-1.3c2.2-2 4.6-3.8 7.1-5.4l1 1.5c-2.5 1.6-4.8 3.3-7 5.2zm73.4-8.8c-2.3-1.3-4.8-2.4-7.2-3.3l-0.7-0.3 0.6-1.6 0.7 0.2c2.5 1 5 2.1 7.5 3.4zm-58.9-0.6l-0.7-1.6c2.6-1.3 5.4-2.4 8.3-3.3l0.5 1.7c-2.7 0.9-5.5 2-8.1 3.2zm42.5-5.3c-2.8-0.6-5.7-1-8.6-1.2l0.1-1.7c3 0.2 6 0.6 8.9 1.2zm-26-0.1l-0.3-1.8c2.9-0.5 5.9-0.9 8.9-1.1l0.1 1.8c-2.9 0.2-5.8 0.5-8.7 1.1zm-47.2 3.2c-1.7-2.4-3.4-4.7-5.3-7l1.4-1.1c1.9 2.3 3.6 4.7 5.3 7.1zm-213.1 8.1l-1.6-0.9c1.5-2.6 3.1-5.1 4.7-7.5l1.5 0.9c-1.6 2.5-3.2 5-4.6 7.5zm202.2-21.7c-2-2.2-4.1-4.3-6.2-6.3l1.2-1.3c2.2 2.1 4.3 4.2 6.3 6.4zm-192.4 7.2l-1.4-1.1c1.8-2.3 3.8-4.6 5.8-6.8l1.3 1.2c-2 2.2-3.9 4.4-5.7 6.7zm179.6-19.3c-2.2-1.8-4.5-3.6-6.9-5.3l1-1.5c2.4 1.7 4.8 3.6 7.1 5.4zm-167.9 6.4l-1.2-1.3c2.1-2.1 4.4-4 6.6-5.9l1.2 1.3c-2.3 1.9-4.5 3.8-6.6 5.9zm153.6-16.6c-2.4-1.5-5-3-7.6-4.4l0.9-1.5c2.6 1.3 5.2 2.8 7.7 4.4zm-140.2 5.3l-1-1.4c2.4-1.7 4.9-3.4 7.3-5l1 1.5c-2.5 1.6-4.9 3.2-7.3 4.9zm124.7-13.6c-2.7-1.2-5.4-2.3-8.1-3.3l0.6-1.6c2.8 1 5.5 2.1 8.2 3.3zm-109.8 4.3l-0.8-1.6c2.6-1.4 5.2-2.7 7.9-3.9l0.7 1.6c-2.6 1.2-5.2 2.5-7.8 3.9zm93.4-10.4c-2.8-0.8-5.7-1.5-8.5-2.2l0.4-1.7c2.8 0.6 5.7 1.4 8.6 2.2zm-77.5 3.1l-0.6-1.6c2.8-1.1 5.6-2 8.4-2.9l0.5 1.7c-2.7 0.8-5.5 1.8-8.3 2.8zm60.4-6.8c-2.9-0.4-5.9-0.8-8.7-1l0.1-1.7c2.9 0.2 5.9 0.5 8.8 0.9zm-43.5 1.8l-0.4-1.7c2.9-0.7 5.8-1.2 8.7-1.7l0.3 1.8c-2.9 0.4-5.8 1-8.6 1.6zm26.1-3c-2.9 0-5.9 0.1-8.8 0.4l-0.1-1.8c2.9-0.2 5.9-0.4 8.8-0.4z"/>
						</g>
						<g id="&lt;Group&gt;">
							<path id="&lt;Path&gt;" class="s3" d="m501.6 977.8l116.1-18.9-38.5-91.5z"/>
							<path id="&lt;Path&gt;" class="s4" d="m501.6 977.8l119.2-70.3-28.5-11.4z"/>
						</g>
					</g>
					<g id="&lt;Group&gt;">
						<g id="&lt;Group&gt;">
							<path id="&lt;Compound Path&gt;" class="s2" d="m664.8 181.9q-2.8 0-5.5-0.1v-2q5 0.1 10 0v2q-2.3 0.1-4.5 0.1zm14.6-0.6l-0.2-2c3.3-0.2 6.6-0.5 9.9-1l0.3 2c-3.3 0.4-6.7 0.8-10 1zm-30.2 0c-3.3-0.3-6.6-0.7-10-1.1l0.3-2c3.3 0.5 6.6 0.8 9.9 1.1zm50.1-2.5l-0.4-1.9c3.3-0.6 6.5-1.3 9.8-2l0.4 1.9c-3.2 0.8-6.6 1.4-9.8 2zm-70-0.1c-3.3-0.6-6.6-1.3-9.9-2.1l0.5-1.9c3.2 0.7 6.5 1.4 9.7 2zm89.6-4.4l-0.6-1.9c3.2-0.9 6.4-1.9 9.5-3l0.7 1.9c-3.2 1.1-6.4 2.1-9.6 3zm-109.1-0.2c-3.2-1-6.5-2-9.6-3.1l0.7-1.9c3.1 1.1 6.3 2.1 9.4 3zm128.1-6.3l-0.7-1.9c3-1.2 6.1-2.6 9.1-4l0.8 1.8c-3 1.4-6.1 2.8-9.2 4.1zm-147-0.4c-3.1-1.2-6.2-2.6-9.2-4.1l0.9-1.8c3 1.5 6 2.8 9.1 4.1zm165.1-8.3l-0.9-1.8c2.9-1.6 5.8-3.3 8.5-5l1.1 1.7c-2.8 1.7-5.7 3.5-8.7 5.1zm-183.2-0.5c-3-1.6-5.9-3.3-8.7-5.1l1.1-1.7c2.8 1.8 5.7 3.5 8.5 5.1zm200.3-10.3l-1.1-1.6q1.1-0.8 2.2-1.6l1.2 1.6q-1.1 0.8-2.3 1.6zm-217.2-0.5q-0.8-0.6-1.6-1.2c-2.3-1.6-4.4-3.3-6.4-5l1.3-1.5c2 1.6 4.1 3.3 6.3 4.9q0.8 0.6 1.5 1.2zm-15.2-13.2q-1.7-1.9-3.3-3.8-0.7 0.2-1.5 0.3l-0.3-1.9q0.2-0.1 0.5-0.1-0.9-1.2-1.7-2.5l1.6-1.1q1.1 1.6 2.2 3.1 3.7-0.8 6.9-1.9l0.6 1.9q-2.9 1-6.1 1.7 1.2 1.5 2.6 2.9zm-24.9-1.5v-2c3.3-0.1 6.7-0.2 9.9-0.5l0.2 2c-3.3 0.3-6.7 0.4-10.1 0.5zm-10-0.4c-3.4-0.2-6.7-0.6-10-1.2l0.3-1.9c3.2 0.5 6.5 0.9 9.8 1.1zm-19.9-3.1c-3.2-0.8-6.5-1.7-9.7-2.7l0.6-1.9c3.2 1 6.4 1.9 9.6 2.7zm69.1-5.3l-1.1-1.7c2.9-1.8 5.5-3.8 7.6-6.1l1.5 1.4c-2.3 2.4-5 4.6-8 6.4zm-88.3-0.9c-3.1-1.2-6.2-2.6-9.2-4.1l0.9-1.8c3 1.4 6 2.8 9.1 4.1zm62.9-5.8c-1.3-3.3-2-6.7-2.3-10l2-0.2c0.2 3.2 1 6.3 2.2 9.4zm-81-3.1c-2.9-1.7-5.8-3.5-8.5-5.4l1.2-1.7c2.7 1.9 5.5 3.7 8.3 5.4zm119.8-5.3l-1.9-0.7c1.2-3 1.8-6.3 1.8-9.5h2c0 3.5-0.7 7-1.9 10.2zm-136.3-6.2c-2.6-2.1-5.2-4.4-7.6-6.7l1.4-1.4c2.4 2.2 4.9 4.4 7.5 6.5zm98.3-4.9l-1.9-0.7c1.1-3.1 2.8-6.2 5-9l1.6 1.3c-2.1 2.5-3.7 5.4-4.7 8.4zm35.9-8.3c-1.4-3-3.4-5.3-6-7l1-1.7q4.5 2.9 6.8 7.9zm-148.8-0.7c-2.3-2.5-4.4-5.1-6.4-7.8l1.6-1.2c1.9 2.6 4.1 5.2 6.3 7.7zm124.8-5.8l-1-1.7c3.2-1.9 6.6-3 9.9-3.2l0.1 2c-3 0.2-6.1 1.2-9 2.9zm-137-10.3c-1.8-2.8-3.5-5.8-5.1-8.7l1.8-0.9c1.5 2.9 3.2 5.8 5 8.5z"/>
						</g>
						<g id="&lt;Group&gt;">
							<path id="&lt;Path&gt;" class="s3" d="m882.2 70.2l-112.6 14.4 34.1 89.5z"/>
							<path id="&lt;Path&gt;" class="s4" d="m882.2 70.2l-117.2 63.8 27.1 12z"/>
						</g>
					</g>
				</g>
				<g id="&lt;Group&gt;">
					<g id="&lt;Group&gt;">
						<path id="&lt;Path&gt;" class="s5" d="m1386.7 934c0 7.9-6.4 14.2-14.2 14.2-7.9 0-14.3-6.3-14.3-14.2 0-7.9 6.4-14.3 14.3-14.3 7.8 0 14.2 6.4 14.2 14.3z"/>
						<path id="&lt;Path&gt;" class="s5" d="m160.6 48.3c0 6.1-5 11.1-11.1 11.1-6.2 0-11.2-5-11.2-11.1 0-6.2 5-11.2 11.2-11.2 6.1 0 11.1 5 11.1 11.2z"/>
						<path id="&lt;Path&gt;" class="s5" d="m749 956.9c0 8-6.5 14.5-14.5 14.5-8 0-14.5-6.5-14.5-14.5 0-8 6.5-14.5 14.5-14.5 8 0 14.5 6.5 14.5 14.5z"/>
						<path id="&lt;Path&gt;" class="s5" d="m58.4 949.3c0 8-6.5 14.5-14.5 14.5-8 0-14.5-6.5-14.5-14.5 0-8 6.5-14.5 14.5-14.5 8 0 14.5 6.5 14.5 14.5z"/>
						<path id="&lt;Path&gt;" class="s5" d="m644.2 95.4c0 6.6-5.4 12-12 12-6.6 0-11.9-5.4-11.9-12 0-6.5 5.3-11.9 11.9-11.9 6.6 0 12 5.4 12 11.9z"/>
					</g>
					<g id="&lt;Group&gt;">
						<g id="&lt;Group&gt;">
							<path id="&lt;Path&gt;" class="s2" d="m720.7 38h-8.7v-8.8c0-1.5-1.3-2.8-2.9-2.8-1.5 0-2.8 1.3-2.8 2.8v8.8h-8.7c-1.6 0-2.9 1.3-2.9 2.8 0 1.6 1.3 2.9 2.9 2.9h8.7v8.7c0 1.6 1.3 2.9 2.8 2.9 1.6 0 2.9-1.3 2.9-2.9v-8.7h8.7c1.6 0 2.9-1.3 2.9-2.9 0-1.5-1.3-2.8-2.9-2.8z"/>
							<path id="&lt;Path&gt;" class="s2" d="m383.2 348.7h-13.1v-13.1c0-2.4-1.9-4.3-4.3-4.3-2.3 0-4.2 1.9-4.2 4.3v13.1h-13.2c-2.3 0-4.2 1.9-4.2 4.3 0 2.3 1.9 4.2 4.2 4.2h13.2v13.2c0 2.4 1.9 4.3 4.2 4.3 2.4 0 4.3-1.9 4.3-4.3v-13.2h13.1c2.4 0 4.3-1.9 4.3-4.2 0-2.4-1.9-4.3-4.3-4.3z"/>
							<path id="&lt;Path&gt;" class="s2" d="m1434.9 101.9h-11v-10.9c0-2-1.6-3.6-3.6-3.6-1.9 0-3.5 1.6-3.5 3.6v10.9h-11c-1.9 0-3.5 1.6-3.5 3.6 0 1.9 1.6 3.5 3.5 3.5h11v11c0 1.9 1.6 3.5 3.5 3.5 2 0 3.6-1.6 3.6-3.5v-11h11c1.9 0 3.5-1.6 3.5-3.5 0-2-1.6-3.6-3.5-3.6z"/>
							<path id="&lt;Path&gt;" class="s2" d="m443.6 956.9h-10.9v-11c0-1.9-1.6-3.5-3.6-3.5-1.9 0-3.5 1.6-3.5 3.5v11h-11c-1.9 0-3.5 1.6-3.5 3.6 0 1.9 1.6 3.5 3.5 3.5h11v11c0 1.9 1.6 3.5 3.5 3.5 2 0 3.6-1.6 3.6-3.5v-11h10.9c2 0 3.6-1.6 3.6-3.5 0-2-1.6-3.6-3.6-3.6z"/>
						</g>
					</g>
				</g>
			</g>
		</g>
		<g id="&lt;Clip Group&gt;" clip-path="url(#cp2)">
			<g id="&lt;Group&gt;">
				<g id="&lt;Group&gt;" style="opacity: .2;mix-blend-mode: multiply">
					<g id="&lt;Group&gt;">
						<path id="&lt;Compound Path&gt;" fill-rule="evenodd" class="s0" d="m482.6 295.2l-2.4 3.1c-2.1 0-6.7 0-8.6-1.1 0 0 3.5 2.9 6 4.4l-4.4 5.7c-9.5-3.5-11.7-11.4-12.2-15.9q-0.6-0.1-1.3-0.4c-2.6-1.1-3.8-4.1-2.7-6.7 0.4-0.9 1.1-1.7 1.9-2.2-4.7-11-6.9-23-6.2-35 1-16.7 7.7-32.8 18.6-45.5l-23.1-12-2.1 2.7-34.3 45.2c0 0-0.3-2-1.2-5.6 0.8 3.6 1.2 5.6 1.2 5.6-110.2-75.1-138.8-163.4-138.8-163.4q0 0 0 0 0 0-0.1 0l35.2-26 3.9-2.9-17.4-40.4-26.3-61.1 216 81.2 31.9 91.1 0.5 1.6c0.4-0.3 0.8-0.4 1.2-0.1 11.6 5.3 15.2 20 12.1 31.2q-0.5 1.7-1.2 3.5l33.8 96.8-89.1-46.3c-10.8 12.4-17.4 28.1-18.4 44.6-0.7 11.7 1.5 23.3 6.1 34 0.8-0.1 1.7 0 2.5 0.3 2.6 1.1 3.8 4.1 2.7 6.7q-0.4 0.8-0.9 1.4 0.5 0.9 1.1 1.9c6.7 5 16 3.6 16 3.6zm34.9-175.2l10 28.5q0.1-0.2 0.2-0.5c2.8-9.9-0.3-23-10.2-28z"/>
					</g>
				</g>
				<g id="&lt;Group&gt;">
					<g id="&lt;Group&gt;">
						<path id="&lt;Path&gt;" class="s6" d="m537.9 253.8l-209.9-108.9-58.1-135.3-26.3-61.1 216 81.3 31.8 91z"/>
					</g>
					<g id="&lt;Group&gt;">
						<path id="&lt;Path&gt;" class="s6" d="m440.1 172.4l-12.4 16.3-6.3 8.4-34.3 45.3c0 0-2.5-14.6-11.9-35.8-11.1-25.2-31.9-59.9-69.4-91q-3.5-2.9-7.3-5.7c-1.4-1.2-2.9-2.3-4.4-3.4-9.3-6.8-19.4-13.4-30.6-19.6q-7.3-4.1-15.3-8l35.2-26 8.2-6.1 20.3-15q-0.1 0 0 0.1c0.8 0.5 7.1 4.7 16.5 11.6 6.4 4.8 14.3 10.9 23 17.9q2.6 2.1 5.2 4.3c3 2.5 6 5.1 9.1 7.7 32.2 27.9 68 65.6 74.4 99z"/>
					</g>
					<g id="&lt;Group&gt;">
						<path id="&lt;Path&gt;" class="s2" d="m427.7 188.7l-6.3 8.4c-38.3-69-107.4-122.6-138-144.2l8.2-6.1c31.9 22.6 97.5 74.3 136.1 141.9z"/>
					</g>
					<g id="&lt;Group&gt;" style="opacity: .3;mix-blend-mode: multiply">
						<path id="&lt;Path&gt;" class="s7" d="m440.1 172.4l-12.4 16.3-6.3 8.4-34.3 45.3c0 0-2.5-14.6-11.9-35.8l32.9-39.1c3-41.5-93.2-132.8-96.2-135.6 3.6 2.3 116.4 78.6 128.2 140.5z"/>
					</g>
					<g id="&lt;Group&gt;" style="opacity: .6;mix-blend-mode: soft-light">
						<path id="&lt;Path&gt;" class="s2" d="m491.4 120.8c-45.5-36.4-169-134-186.5-134.3-10.3-0.2-23.8 11.2-35 23.1l-26.3-61.1 216 81.3z"/>
					</g>
					<g id="&lt;Group&gt;" style="opacity: .6;mix-blend-mode: soft-light">
						<path id="&lt;Path&gt;" class="s2" d="m365.7 73.4l-59.9 42.2-8 5.6-37.7-32 3.4-2.3 64.9-43.4c6.4 4.8 14.3 10.9 23 17.9l-59.3 42.6 2 2.5 3.4 4.2 1-0.8 58.1-44.2c3 2.5 6 5.1 9.1 7.7z"/>
					</g>
					<path id="&lt;Path&gt;" class="s8" d="m248.2 78.9c0 0 28.6 88.3 138.9 163.5 0 0-25.1-132.5-138.9-163.5z"/>
					<g id="&lt;Group&gt;">
						<g id="&lt;Group&gt;">
							<path id="&lt;Path&gt;" class="s9" d="m447.7 307.9q-0.2-0.1-0.4-0.3c-13.5-15.1-20.5-35.4-19.3-55.7 1.2-20.2 10.7-39.5 25.9-52.9 5.4-4.7 11.5-8.7 17.4-12.6 3.7-2.4 7.4-4.8 11-7.5 11.3-8.3 18.1-16.8 20.7-26.1 2.8-10.1-0.4-23.5-10.8-28.4-0.6-0.2-0.9-0.9-0.6-1.5 0.3-0.6 1-0.9 1.6-0.6 11.6 5.3 15.2 20.1 12.1 31.2-2.8 9.8-9.8 18.7-21.6 27.4-3.6 2.6-7.4 5.1-11.1 7.5-5.8 3.9-11.8 7.8-17.1 12.4-14.8 13-23.9 31.7-25.1 51.3-1.2 19.6 5.6 39.2 18.7 53.9 0.5 0.5 0.4 1.2-0.1 1.7-0.3 0.3-0.8 0.4-1.3 0.2z"/>
						</g>
						<path id="&lt;Path&gt;" class="s9" d="m441.7 293.1c-1.1 2.6-4.1 3.8-6.7 2.8-2.6-1.1-3.8-4.1-2.7-6.7 1.1-2.6 4.1-3.8 6.6-2.7 2.6 1.1 3.9 4 2.8 6.6z"/>
						<path id="&lt;Path&gt;" class="s9" d="m446.9 302c1.9 1.1 6.5 1.1 8.6 1.1l2.3-3.1c0 0-14.4 2.2-20.1-8.5l-1.4 1.3c0 0-1.6 14.2 12.1 19.3l4.4-5.7c-2.4-1.5-5.9-4.4-5.9-4.4z"/>
					</g>
				</g>
			</g>
			<g id="&lt;Group&gt;">
				<g id="&lt;Group&gt;" style="opacity: .2;mix-blend-mode: multiply">
					<path id="&lt;Path&gt;" class="s0" d="m345.9 289.3l-3.1-13.2 17.6-8.4-21.8-11.1 8.9-25.9c4.2-12-2.1-25.2-14.2-29.4l-1.2-0.4c-2.2-6-6.9-11-13.5-13.3l-192.8-66.9-4.7-1.6-3.8-1.4-11.6-4-11-3.8-4.2 12.1-3.5 10.2c-1.4-0.7-2.8-1.6-3.8-2.7-1.6-1.6-2.3-3.6-1.8-5.3 0.3-1.2 1.4-2.3 2.6-2.7 1.3-0.3 2.7 0 3.7 0.8 0.6 0.6 1.4 0.5 2-0.1 0.5-0.6 0.4-1.4-0.2-2-1.7-1.4-4.1-2-6.3-1.3-2.1 0.6-3.9 2.4-4.5 4.6-0.7 2.6 0.2 5.7 2.5 8 1.4 1.5 3.2 2.5 4.9 3.4l-10.7 30.8c-1.4-0.7-2.8-1.6-3.9-2.7-1.5-1.6-2.2-3.7-1.7-5.3 0.3-1.3 1.3-2.3 2.6-2.7 1.2-0.3 2.7 0 3.7 0.8 0.5 0.5 1.4 0.5 1.9-0.1 0.5-0.6 0.5-1.5-0.1-2-1.7-1.4-4.2-2-6.3-1.4-2.2 0.7-3.9 2.5-4.5 4.7-0.8 2.6 0.2 5.6 2.4 8 1.5 1.5 3.2 2.5 5 3.4l-10.7 30.8c-1.4-0.7-2.8-1.6-3.9-2.7-1.5-1.6-2.2-3.7-1.8-5.3 0.4-1.3 1.4-2.3 2.7-2.7 1.2-0.4 2.7 0 3.6 0.8 0.6 0.5 1.5 0.5 2-0.1 0.5-0.6 0.5-1.5-0.1-2-1.7-1.5-4.2-2-6.3-1.4-2.2 0.7-4 2.5-4.6 4.6-0.7 2.7 0.3 5.7 2.5 8.1 1.5 1.4 3.2 2.5 4.9 3.4l-10.7 30.8c-1.4-0.8-2.7-1.6-3.8-2.7-1.5-1.6-2.2-3.7-1.8-5.3 0.4-1.3 1.4-2.3 2.6-2.7 1.3-0.4 2.7-0.1 3.7 0.8 0.6 0.5 1.5 0.5 2-0.1 0.5-0.6 0.4-1.5-0.1-2-1.7-1.5-4.2-2-6.3-1.4-2.2 0.7-4 2.5-4.6 4.6-0.7 2.7 0.2 5.7 2.5 8 1.4 1.5 3.2 2.6 4.9 3.5l-10.7 30.8c-1.4-0.8-2.8-1.6-3.8-2.7-1.6-1.6-2.3-3.7-1.8-5.3 0.3-1.3 1.4-2.3 2.6-2.7 1.3-0.4 2.7-0.1 3.7 0.8 0.6 0.5 1.5 0.5 2-0.1 0.5-0.6 0.4-1.5-0.2-2-1.6-1.5-4.1-2-6.3-1.4-2.1 0.7-3.9 2.5-4.5 4.6-0.7 2.6 0.2 5.7 2.5 8 1.4 1.5 3.1 2.6 4.9 3.5l-10.7 30.8c-1.4-0.8-2.8-1.6-3.8-2.7-1.6-1.6-2.3-3.7-1.8-5.3 0.3-1.3 1.4-2.3 2.6-2.7 1.3-0.4 2.7-0.1 3.7 0.8 0.6 0.5 1.4 0.5 2-0.1 0.5-0.6 0.4-1.5-0.2-2-1.7-1.5-4.1-2-6.3-1.4-2.1 0.6-3.9 2.5-4.5 4.6-0.7 2.6 0.2 5.7 2.4 8 1.5 1.5 3.2 2.5 5 3.4l-10.7 30.9c-1.4-0.8-2.8-1.6-3.9-2.7-1.5-1.6-2.2-3.7-1.8-5.3 0.4-1.3 1.4-2.4 2.7-2.7 1.2-0.4 2.7-0.1 3.7 0.8 0.5 0.5 1.4 0.4 1.9-0.1 0.5-0.6 0.5-1.5-0.1-2-1.7-1.5-4.2-2-6.3-1.4-2.2 0.6-3.9 2.4-4.5 4.6-0.8 2.6 0.2 5.7 2.4 8 1.5 1.5 3.2 2.6 5 3.4l-10.7 30.9c-1.5-0.8-2.8-1.6-3.9-2.7-1.5-1.6-2.2-3.7-1.8-5.3 0.4-1.3 1.4-2.4 2.7-2.7 1.2-0.4 2.7-0.1 3.6 0.8 0.6 0.5 1.5 0.4 2-0.1 0.5-0.6 0.5-1.5-0.1-2-1.7-1.5-4.2-2.1-6.3-1.4-2.2 0.6-4 2.4-4.6 4.6-0.7 2.6 0.3 5.7 2.5 8 1.4 1.5 3.2 2.5 4.9 3.4l-9.8 28.4-0.9 2.4c-1.4-0.7-2.7-1.5-3.8-2.6-1.6-1.6-2.3-3.7-1.8-5.4 0.4-1.2 1.4-2.3 2.6-2.6 1.3-0.4 2.7-0.1 3.7 0.8 0.6 0.5 1.5 0.4 2-0.2 0.5-0.5 0.4-1.4-0.1-1.9-1.7-1.5-4.2-2.1-6.4-1.4-2.1 0.6-3.9 2.4-4.5 4.6-0.7 2.6 0.2 5.7 2.5 8 1.4 1.5 3.2 2.5 4.9 3.4l-4.2 12.1-5.2 15 11 3.9-4.3 12.5 230.2 79.9c12 4.2 25.2-2.2 29.4-14.3l26.5-76.6 14.9 8-3.1-13.2 17.6-8.4-20.9-10.6 23.2-67.1 14.5 7.7-3.1-13.2 17.5-8.4-20.4-10.4 13.5-38.9z"/>
				</g>
				<g id="&lt;Group&gt;">
					<g id="&lt;Group&gt;">
						<g id="&lt;Group&gt;">
							<path id="&lt;Path&gt;" class="s10" d="m310.5 171.5l-231.8-75.5-111.2 320.5 230.3 79.8c12 4.2 25.2-2.2 29.3-14.2l97.6-281.2c4.2-12-2.2-25.2-14.2-29.4z"/>
						</g>
						<g id="&lt;Group&gt;">
							<path id="&lt;Path&gt;" class="s2" d="m302.2 173.6l-234.5-81.4-106.8 307.9 234.4 81.4c11.4 3.9 23.9-2.1 27.9-13.5l92.5-266.6c3.9-11.4-2.1-23.9-13.5-27.8z"/>
						</g>
						<path id="&lt;Path&gt;" class="s9" d="m309.3 185.6l-92.5 266.6c-3.9 11.4-16.4 17.4-27.8 13.5l-212.9-73.9 106.8-307.9 212.9 73.9c11.5 4 17.5 16.4 13.5 27.8z"/>
						<path id="&lt;Path&gt;" class="s11" d="m-8.5 397.2l-26.4-9.2 106.8-307.9 26.4 9.2z"/>
						<g id="&lt;Group&gt;">
							<g id="&lt;Group&gt;">
								<g id="&lt;Group&gt;">
									<path id="&lt;Path&gt;" class="s2" d="m234.9 260.8l-138.1-47.9 26.9-77.4 138.1 47.9z"/>
								</g>
								<g id="&lt;Group&gt;">
									<path id="&lt;Path&gt;" class="s2" d="m184.8 354.8l-106.8-37.1 7.2-21 106.9 37.1z"/>
								</g>
								<g id="&lt;Group&gt;">
									<path id="&lt;Path&gt;" class="s2" d="m172.4 390.6l-106.9-37.1 7.3-20.9 106.9 37z"/>
								</g>
								<g id="&lt;Group&gt;">
									<path id="&lt;Path&gt;" class="s2" d="m160 426.5l-106.9-37.1 7.3-21 106.8 37.1z"/>
								</g>
							</g>
						</g>
						<g id="&lt;Group&gt;" style="opacity: .4;mix-blend-mode: multiply">
							<path id="&lt;Path&gt;" class="s9" d="m309.3 185.6l-92.5 266.6c-3.9 11.4-16.4 17.4-27.8 13.5l-223.9-77.7 7-20.2c162.1 61.4 287.4-151.7 315.9-212.7l7.8 2.7c11.5 4 17.5 16.4 13.5 27.8z"/>
						</g>
						<g id="&lt;Group&gt;" style="opacity: .6;mix-blend-mode: soft-light">
							<path id="&lt;Path&gt;" class="s2" d="m222.8 132.4l-124.5-43.1-94.2 271.3 108.2-237.8z"/>
						</g>
						<path id="&lt;Path&gt;" class="s9" d="m304.3 221l33.2 16.9-17.5 8.4 3.1 13.2-27.4-14.7z"/>
						<path id="&lt;Path&gt;" class="s6" d="m281.1 283.5l33.2 16.8-17.5 8.4 3.1 13.2-27.4-14.7z"/>
						<path id="&lt;Path&gt;" class="s9" d="m249.9 375.1l33.2 16.8-17.6 8.4 3.1 13.2-27.4-14.7z"/>
					</g>
					<g id="&lt;Group&gt;">
						<g id="&lt;Group&gt;">
							<path id="&lt;Path&gt;" class="s2" d="m70.1 108.1c-1.9-0.6-3.6-1.5-5.2-2.2-2.2-1.1-4.7-2.3-6.6-4.3-2.2-2.3-3.2-5.3-2.4-8 0.6-2.1 2.3-3.9 4.5-4.6 2.1-0.6 4.6-0.1 6.3 1.4 0.6 0.5 0.6 1.4 0.1 2-0.5 0.6-1.4 0.6-1.9 0.1-1-0.9-2.5-1.2-3.7-0.8-1.3 0.4-2.3 1.4-2.6 2.7-0.5 1.6 0.2 3.7 1.7 5.3 1.6 1.6 3.7 2.6 5.8 3.6 2.9 1.4 5.8 2.9 9 3.1 2.6 0.1 5.9-1 7.1-3.6 0.3-0.7 1.1-1.1 1.8-0.7 0.7 0.3 1.1 1.1 0.7 1.8-1.7 3.9-6.1 5.5-9.8 5.3-1.6-0.1-3.3-0.5-4.8-1.1z"/>
						</g>
						<g id="&lt;Group&gt;">
							<path id="&lt;Path&gt;" class="s2" d="m58.5 141.6c-1.9-0.6-3.6-1.5-5.3-2.3-2.1-1-4.6-2.2-6.5-4.2-2.2-2.3-3.2-5.4-2.5-8 0.6-2.1 2.4-3.9 4.6-4.6 2.1-0.6 4.6-0.1 6.3 1.4 0.6 0.5 0.6 1.4 0.1 2-0.5 0.6-1.4 0.6-2 0.1-0.9-0.9-2.4-1.2-3.6-0.8-1.3 0.4-2.3 1.4-2.7 2.7-0.4 1.6 0.3 3.7 1.8 5.3 1.6 1.6 3.7 2.6 5.8 3.6 2.8 1.4 5.8 2.9 9 3.1 2.6 0.1 5.9-1 7.1-3.6 0.3-0.7 1.1-1.1 1.8-0.7 0.7 0.3 1 1.1 0.7 1.8-1.7 3.9-6.2 5.4-9.8 5.3-1.7-0.1-3.3-0.5-4.8-1.1z"/>
						</g>
						<g id="&lt;Group&gt;">
							<path id="&lt;Path&gt;" class="s2" d="m46.8 175.1c-1.8-0.6-3.6-1.5-5.2-2.3-2.2-1-4.6-2.2-6.5-4.2-2.3-2.3-3.2-5.4-2.5-8 0.6-2.1 2.4-4 4.5-4.6 2.2-0.6 4.7-0.1 6.4 1.4 0.5 0.5 0.6 1.4 0.1 2-0.5 0.5-1.4 0.6-2 0.1-1-0.9-2.4-1.2-3.7-0.8-1.2 0.3-2.2 1.4-2.6 2.7-0.4 1.6 0.3 3.7 1.8 5.3 1.5 1.6 3.7 2.6 5.7 3.6 2.9 1.4 5.9 2.9 9 3.1 2.6 0.1 6-1 7.1-3.6 0.4-0.7 1.2-1 1.9-0.7 0.7 0.3 1 1.1 0.7 1.8-1.7 3.9-6.2 5.4-9.8 5.2-1.7 0-3.3-0.4-4.9-1z"/>
						</g>
						<g id="&lt;Group&gt;">
							<path id="&lt;Path&gt;" class="s2" d="m35.2 208.6c-1.8-0.6-3.6-1.5-5.2-2.3-2.3-1.1-4.7-2.2-6.5-4.2-2.3-2.3-3.2-5.4-2.5-8 0.6-2.2 2.4-4 4.5-4.6 2.2-0.6 4.7-0.1 6.3 1.4 0.6 0.5 0.7 1.4 0.2 2-0.5 0.5-1.4 0.6-2 0.1-1-0.9-2.4-1.2-3.7-0.8-1.2 0.3-2.3 1.4-2.6 2.7-0.5 1.6 0.2 3.7 1.8 5.3 1.5 1.6 3.6 2.6 5.7 3.6 2.8 1.4 5.9 2.9 9 3 2.6 0.2 5.9-0.9 7.1-3.5 0.3-0.7 1.1-1.1 1.9-0.7 0.7 0.3 1 1.1 0.7 1.8-1.8 3.9-6.2 5.4-9.8 5.2-1.7-0.1-3.3-0.4-4.9-1z"/>
						</g>
						<g id="&lt;Group&gt;">
							<path id="&lt;Path&gt;" class="s2" d="m23.6 242.1c-1.9-0.6-3.6-1.5-5.2-2.3-2.3-1.1-4.7-2.3-6.6-4.2-2.2-2.3-3.2-5.4-2.4-8 0.6-2.2 2.3-4 4.5-4.6 2.2-0.7 4.6-0.1 6.3 1.4 0.6 0.5 0.7 1.4 0.1 2-0.5 0.5-1.3 0.6-1.9 0.1-1-0.9-2.5-1.2-3.7-0.8-1.3 0.3-2.3 1.4-2.6 2.6-0.5 1.7 0.2 3.8 1.7 5.4 1.6 1.6 3.7 2.6 5.8 3.6 2.7 1.3 5.9 2.9 9 3 2.6 0.2 5.9-0.9 7.1-3.5 0.3-0.7 1.1-1.1 1.8-0.7 0.8 0.3 1.1 1.1 0.8 1.8-1.8 3.9-6.2 5.4-9.9 5.2-1.6-0.1-3.3-0.5-4.8-1z"/>
						</g>
						<g id="&lt;Group&gt;">
							<path id="&lt;Path&gt;" class="s2" d="m12 275.6c-1.9-0.6-3.6-1.5-5.3-2.3-2.2-1.1-4.6-2.3-6.5-4.2-2.2-2.3-3.2-5.4-2.4-8 0.5-2.2 2.3-4 4.5-4.6 2.1-0.7 4.6-0.1 6.3 1.4 0.6 0.5 0.6 1.4 0.1 1.9-0.5 0.6-1.4 0.7-1.9 0.2-1-0.9-2.5-1.2-3.7-0.8-1.3 0.3-2.3 1.4-2.7 2.6-0.4 1.7 0.3 3.8 1.8 5.4 1.6 1.5 3.7 2.6 5.8 3.6 2.7 1.3 5.8 2.9 9 3 2.6 0.2 5.9-0.9 7.1-3.5 0.3-0.8 1.1-1.1 1.8-0.7 0.7 0.3 1 1.1 0.7 1.8-1.7 3.9-6.1 5.4-9.8 5.2-1.7-0.1-3.3-0.5-4.8-1z"/>
						</g>
						<g id="&lt;Group&gt;">
							<path id="&lt;Path&gt;" class="s2" d="m0.4 309.1c-1.9-0.6-3.6-1.5-5.3-2.3-2.1-1.1-4.6-2.3-6.5-4.2-2.3-2.3-3.2-5.4-2.5-8 0.6-2.2 2.4-4 4.6-4.6 2.1-0.7 4.6-0.1 6.3 1.4 0.6 0.5 0.6 1.4 0.1 1.9-0.5 0.6-1.4 0.7-2 0.2-0.9-0.9-2.4-1.2-3.6-0.9-1.3 0.4-2.3 1.5-2.7 2.7-0.4 1.7 0.3 3.8 1.8 5.3 1.6 1.7 3.7 2.7 5.7 3.7 2.9 1.4 5.9 2.9 9.1 3 2.5 0.2 5.9-0.9 7.1-3.6 0.3-0.7 1.1-1 1.8-0.7 0.7 0.4 1 1.2 0.7 1.9-1.7 3.9-6.2 5.4-9.8 5.2-1.7-0.1-3.3-0.5-4.8-1z"/>
						</g>
						<g id="&lt;Group&gt;">
							<path id="&lt;Path&gt;" class="s2" d="m-11.3 342.6c-1.8-0.7-3.6-1.5-5.2-2.3-2.2-1.1-4.6-2.3-6.5-4.2-2.3-2.3-3.2-5.4-2.5-8 0.6-2.2 2.4-4 4.5-4.6 2.2-0.7 4.7-0.1 6.4 1.4 0.5 0.5 0.6 1.3 0.1 1.9-0.5 0.6-1.4 0.7-2 0.2-1-0.9-2.4-1.2-3.7-0.9-1.2 0.4-2.3 1.5-2.6 2.7-0.5 1.7 0.2 3.8 1.8 5.3 1.5 1.6 3.7 2.7 5.7 3.7 2.9 1.4 5.9 2.8 9 3 2.6 0.2 5.9-0.9 7.1-3.6 0.4-0.7 1.2-1 1.9-0.7 0.7 0.3 1 1.2 0.7 1.9-1.8 3.9-6.2 5.4-9.8 5.2-1.7-0.1-3.3-0.5-4.9-1z"/>
						</g>
						<g id="&lt;Group&gt;">
							<path id="&lt;Path&gt;" class="s2" d="m-22.9 376.1c-1.8-0.7-3.6-1.5-5.2-2.3-2.2-1.1-4.6-2.3-6.5-4.2-2.3-2.3-3.2-5.4-2.5-8 0.6-2.2 2.4-4 4.5-4.6 2.2-0.7 4.7-0.1 6.3 1.3 0.6 0.6 0.7 1.4 0.2 2-0.6 0.6-1.4 0.7-2 0.1-1-0.8-2.4-1.1-3.7-0.8-1.2 0.4-2.3 1.5-2.6 2.7-0.5 1.7 0.2 3.7 1.8 5.3 1.5 1.6 3.6 2.7 5.7 3.7 2.9 1.4 5.9 2.8 9 3 2.6 0.1 5.9-0.9 7.1-3.6 0.3-0.7 1.1-1 1.9-0.7 0.7 0.3 1 1.2 0.7 1.9-1.8 3.8-6.2 5.4-9.8 5.2-1.7-0.1-3.3-0.5-4.9-1z"/>
						</g>
					</g>
				</g>
			</g>
			<g id="&lt;Group&gt;">
				<g id="&lt;Group&gt;" style="opacity: .2;mix-blend-mode: multiply">
					<g id="&lt;Group&gt;">
						<path id="&lt;Compound Path&gt;" fill-rule="evenodd" class="s0" d="m319.5 646.5c3.1 12.6 4.2 25.6 3.5 38.5q-0.5 9.8-2.4 19.4c-4.2 20.6-13.4 40.5-27.7 57.9q-0.4 0.6-0.9 1.2c-24.6 29.2-59 45.2-94.2 47.2-5.6 0.4-11.3 0.3-16.9-0.1-10.6-0.7-21.1-2.6-31.3-5.9q-6.3-2-12.5-4.7l-6 10.9q7.3 3.2 14.8 5.6c11 3.5 22.5 5.7 34.1 6.4l0.5 0.1c5.9 0.4 12 0.4 18 0 7.3-0.4 14.5-1.4 21.4-2.8l4.4 20.5c-7.9 1.7-16.2 2.8-24.5 3.3-7.1 0.4-14.3 0.4-21.2-0.1l-0.5-0.1c-13.1-0.9-26.1-3.3-38.6-7.3q-5.4-1.7-10.7-3.9l-3.6 10-24-7.9 7.8-11.4q-3.7-2.1-7.3-4.3c-5.9-3.7-11.6-7.9-17.1-12.3l-5.9 15.2-6.7 17.2c7 11.7 11.3 22.9 11.4 23.1l-16.2 31.5c0 0-7.9-1.4-18.8-5.1-10.4-3.6-23.6-9.4-35.1-18.1-5.6-4.3-10.6-9.4-14.9-14.6-5.9-7.2-10.6-14.6-13.9-20.7-4.3-7.8-6.5-13.4-6.5-13.4l31.9-19.2v0.1c0 0 9.8 0.9 21.2 4.2l21.2-15.2 9.9-7.1q-3.6-4.3-6.9-8.8c-10.6-14.6-18.9-30.9-24.3-48.3-6.6-21.1-8.9-43-6.9-64.9q0.5-5.3 1.3-10.6c1.3-8.3 3.2-16.4 5.7-24.4 2.4-7.7 5.5-15.4 9.1-22.7q0.6-1.4 1.3-2.8l0.3-0.5c5.7-11 12.6-21.5 20.7-31.1 15.6-18.5 34.5-33.1 56.1-43.4 45.4-21.4 99.4-21.1 144.4 0.8 6.7 3.3 13.2 7.1 19.4 11.2l9.9-18.1 22.4 11.8-17 17.9c12.5 10.5 23.3 22.8 32.1 36.4l-8.4 5.4-9.2 6c-7.8-12.1-17.4-22.9-28.5-32.2q-0.5-0.5-1.1-0.9l-6.8 10.3q0 0 0 0c22.6 19.1 37.3 44.1 43.7 70.8zm-191.2 149.3q-4.6-2.4-8.9-5.1-7.9-4.9-15.2-11c-20.2-17-34.1-38.7-41.4-62.1-5.2-16.8-7.1-34.5-5.5-52 0.8-9.4 2.7-18.8 5.6-28 1.9-6.2 4.3-12.3 7.3-18.2q0.6-1.3 1.2-2.6c4.5-8.7 10-17.1 16.6-24.9 12.8-15.1 28.1-26.7 44.9-34.6 36.2-17.2 78.8-17.3 115.5 0.6 6.5 3.2 12.8 7 18.9 11.3l7.7-9.7c-6.8-4.8-13.8-9.1-21.2-12.7-39.4-19.2-86.5-19.4-126.2-0.7-18.9 9-35.4 21.7-49 37.9-7.1 8.4-13.2 17.6-18.1 27.2l-0.3 0.4q-0.5 1.1-1.1 2.2l-0.1 0.2c-3.1 6.4-5.8 13.1-7.9 19.9-3.1 9.9-5.2 20.2-6.1 30.6-1.7 19.2 0.3 38.3 6 56.8 8.3 26.4 23.9 49.9 45.2 67.8 5.3 4.4 10.9 8.5 16.6 12.1q4 2.4 8 4.6l0.2-0.2 2.3 1.2z"/>
					</g>
				</g>
				<g id="&lt;Group&gt;">
					<g id="&lt;Group&gt;">
						<path id="&lt;Path&gt;" class="s9" d="m58.4 865.2c0 0-7.9-1.4-18.8-5.1-10.5-3.6-23.6-9.4-35.1-18.2-5.6-4.3-10.6-9.3-14.9-14.5-6-7.2-10.6-14.7-14-20.7-4.3-7.8-6.4-13.4-6.4-13.4l31.9-19.2 7.7 6.3 1.7 1.4 51.9 42 12.2 9.9z"/>
						<g id="&lt;Group&gt;" style="opacity: .7;mix-blend-mode: multiply">
							<path id="&lt;Path&gt;" class="s9" d="m58.4 865.2c0 0-7.9-1.4-18.8-5.1l15.2-26.1-18.8-18 26.4 7.8 12.2 9.9z"/>
						</g>
						<g id="&lt;Group&gt;" style="opacity: .6;mix-blend-mode: soft-light">
							<path id="&lt;Path&gt;" class="s2" d="m24.9 799.5l-35.3 27.9c-6-7.2-10.6-14.7-14-20.7l33.2-26.3 0.3-0.3 1.4 1.7z"/>
						</g>
						<g id="&lt;Group&gt;">
							<path id="&lt;Path&gt;" class="s10" d="m1.1 774.1c0 0 28.2 2.7 44.7 15.3 16.6 12.7 28.8 44.3 28.8 44.3 0 0-29.4-6.8-48.5-20.9-18.5-13.7-25-38.7-25-38.7z"/>
						</g>
						<g id="&lt;Group&gt;">
							<path id="&lt;Path&gt;" class="s9" d="m60.3 818l-27-12.3-19.5-21.2 29.6-21.3 20.7-14.9 1.5-1.1 4.3 6.4 9.8 14.5-9.8 25.2z"/>
							<g id="&lt;Group&gt;" style="opacity: .7;mix-blend-mode: multiply">
								<path id="&lt;Path&gt;" class="s9" d="m69.9 793.3c-10-9.7-20-21.9-26.5-30.1l20.7-14.9 5.8 5.3 9.8 14.5z"/>
							</g>
						</g>
					</g>
					<g id="&lt;Group&gt;">
						<g id="&lt;Group&gt;">
							<path id="&lt;Path&gt;" class="s9" d="m279.5 528.2l2.1 1.5 24.3-25.4-22.4-11.8-15 27.3 10.5 8-7.4-3.8-15.3 19.5 10.6 3.7z"/>
						</g>
						<g id="&lt;Group&gt;">
							<path id="&lt;Path&gt;" class="s9" d="m114.5 778.3l-2.3-1.2-19.8 29 24 8 10.4-29.4-11.8-6.1 5.6 6.8 14.3-26-11.1-2z"/>
						</g>
						<g id="&lt;Group&gt;">
							<path id="&lt;Path&gt;" class="s7" d="m314.2 656.5q-0.5 9.7-2.5 19.4-1 4.8-2.3 9.6c-4.9 17.2-13.3 33.6-25.3 48.3q-0.5 0.6-1 1.2c-21.2 25.1-49.6 40.5-79.7 45.6q-7.2 1.2-14.5 1.6c-5.6 0.3-11.3 0.3-16.9-0.1-10.2-0.7-20.3-2.5-30.2-5.6q-0.5-0.1-1-0.3-4.5-1.4-8.9-3.2-6.3-2.4-12.4-5.7-4.6-2.3-9-5.1-7.8-4.9-15.2-11.1c-20.1-16.9-34-38.6-41.3-62-3-9.4-4.8-19.1-5.6-28.9-0.7-7.7-0.7-15.4 0-23.1 0.9-9.4 2.7-18.8 5.6-28 2-6.2 4.4-12.3 7.3-18.2q0.6-1.3 1.3-2.6 0.9-1.8 1.9-3.6c4.1-7.4 9-14.6 14.7-21.3 12.7-15.1 28.1-26.7 44.9-34.7 36.1-17.1 78.8-17.2 115.4 0.7 9 4.3 17.5 9.8 25.5 16.3q1 0.7 1.9 1.5c13.7 11.6 24.6 25.3 32.4 40.2v0.1q4.6 8.8 7.8 18.1 2.1 6.1 3.6 12.4c3 12.6 4.2 25.5 3.5 38.5z"/>
						</g>
						<g id="&lt;Group&gt;">
							<path id="&lt;Path&gt;" class="s9" d="m215.4 812.2c-7.9 1.6-16.1 2.8-24.5 3.3-7.1 0.4-14.2 0.4-21.2-0.1l-0.4-0.1c-13.1-0.9-26.1-3.4-38.6-7.3-13.3-4.3-26.1-10.2-37.9-17.6-6.5-4.1-12.9-8.7-18.9-13.8-10.4-8.7-19.5-18.5-27.4-29.3-10.7-14.6-18.9-30.9-24.3-48.3-6.6-21.1-8.9-43-6.9-64.9q0.4-5.4 1.3-10.6c1.2-8.3 3.1-16.4 5.6-24.4 2.5-7.8 5.5-15.4 9.1-22.8q0.7-1.3 1.4-2.7l0.2-0.5c5.7-11.1 12.7-21.5 20.8-31.2 15.5-18.5 34.4-33 56.1-43.3 45.4-21.5 99.3-21.2 144.3 0.8 12.3 6 23.8 13.5 34.3 22.3 12.6 10.7 23.6 23 32.5 36.9l-8.3 5.4-9.3 6c-7.8-12.1-17.4-22.9-28.4-32.2-9.2-7.8-19.3-14.3-30-19.5-39.3-19.2-86.5-19.5-126.2-0.7-18.8 8.9-35.3 21.7-48.9 37.9-7.1 8.4-13.2 17.5-18.2 27.2l-0.2 0.4q-0.6 1.1-1.1 2.2l-0.1 0.2c-3.1 6.4-5.8 13.1-7.9 19.9-3.2 9.9-5.2 20.2-6.1 30.5-1.8 19.2 0.3 38.4 6 56.9 8.3 26.4 23.9 49.8 45.2 67.8 5.3 4.4 10.8 8.5 16.6 12.1 10.3 6.4 21.4 11.6 33 15.3 11.1 3.5 22.6 5.6 34.1 6.4h0.5c6 0.5 12 0.5 18 0.1 7.4-0.4 14.6-1.4 21.5-2.9z"/>
						</g>
						<g id="&lt;Group&gt;">
							<g id="&lt;Group&gt;">
								<path id="&lt;Path&gt;" class="s12" d="m314.2 656.5q-0.5 9.7-2.5 19.4-1 4.8-2.3 9.6c-2.4-2.5-5.4-5.9-7.6-9.9-4.7-8 1.5-11 1.9-13.4 0.5-2.3-1.3-5.4-9-7.5-7.7-2-5.6 7.6-5.9 9.9-0.3 2.3-1.2 6.1-8.1 10-7 3.9-4.9-4.5-16.5-0.5-11.6 4-0.9-13.6-3.5-18.5-2.6-4.9 1.1-7.7 1.1-7.7 0 0-5.7-14.3-4.8-19.7 1-5.3-2.7-10.2-5.6-18.7-2.9-8.5 11.6-7.2 12.8-9.4 1.1-2.2-2.1-6.8-2.1-6.8l5.3-7.2c0 0 4.9 8.1 5.7 12 0.9 3.8 4.7-1.8 3.8-3.9-0.9-2 4.9-6.9 4.9-6.9 0 0 0.3-7.2-1.4-9.2-1.8-2-6.4-2.4-9.6 0-3.2 2.3-11.6-2.1-13.8-3.2-2.2-1.2-4.1-3.2-4.4-4.7-0.3-1.4-6.8-4.1-6.8-4.1 0 0 1 7.3 0 10.5-0.9 3.2 6.5 8.9 8.5 11 2.1 2 0 5.8 0 9.6 0 3.8-10.1 3.7-10.7 2.9-0.6-0.8-8.4-10.8-8.1-14.8 0.2-4.1 3.8-4.7 3.8-4.7 0 0-2-6-5.5-7.5-3.6-1.4 0-11.8 0-11.8 0 0-5.2-2.1-10.2-2.5-4.9-0.4-8.9-9.4-15.3-10.9-6.4-1.4-5.2-14.2-5.2-14.2h19.7l23 3.2 18.4 8.4 0.8 0.4q1 0.7 1.9 1.5c13.7 11.6 24.6 25.3 32.4 40.2v0.1l6.8 16 1 2.1q2.1 6.1 3.6 12.4c3 12.6 4.2 25.5 3.5 38.5z"/>
								<path id="&lt;Path&gt;" class="s12" d="m227.4 756.9c-4.1 2.8-7.7 8.4-7.7 8.4 0 0-4.7 3.8-11.2 10.3-1.9 1.8-3.6 3.5-5.1 5q-7.2 1.2-14.5 1.6c-5.6 0.3-11.3 0.3-16.9-0.1-10.2-0.7-20.3-2.5-30.2-5.6-3.3-1.7-6.7-3.2-8.2-3.3q-0.7-0.1-1.7-0.2-6.3-2.4-12.4-5.7c-1.1-1-3.1-2.2-5.4-7.9-3.5-8.4-12.2-3.9-12.2-11.7 0-7.8-0.8-8.6 1.3-12 2.2-3.4 3.9-12.3 0.7-12-3.3 0.4-9.2 4.4-14.6 0-5.4-4.4-9.7-6.4-10.4-12.2-0.6-5.9-4.8-7-7.2-7-2.3 0-13.1-11.9-14-19.5-0.8-6.7-5.7-17.3-9.3-24.8-0.7-7.7-0.7-15.4 0-23.1 0.9-9.4 2.7-18.8 5.6-28 2-6.2 4.4-12.3 7.3-18.2q0.6-1.3 1.3-2.6 0.9-1.8 1.9-3.6c11-14.8 24.2-33 28.5-32.4 6.3 0.9 17.4-6.6 17.6-7.9 0.2-1.4 3.7-11.1 11.9-10.7 8.3 0.4 16.3 0.9 17.4 0 1.1-0.9 4.9-3.9 14.8 2.5 0 0 4.7 7.1 7.1 7.2 2.5 0.2 7.7 0.9 8.6 1.5 0.9 0.6 2.2 5.6 2 6.6-0.1 1.1-5.9 5.5-6.7 6.5-0.7 1.1-9.4 1.4-8.8 4.3 0.6 2.8 0.6 5.2 0.9 7.2 0.3 2-3.5 5.2-4.1 5.4-0.5 0.1-10.2-1.8-10.2-1.8l-3.1-9.8c0 0 1-8 1-9.6 0-1.6 0.2-4.5-3.8-5.4-4.1-0.8-7.7-3.9-7.7-3.9l-6.6-1-12.4 7.4-2.3 7.2c0 0 8.8-1.5 6.5 4.8-2.3 6.4-3.8 10.3-4.6 10.7-0.9 0.5-8.7 1.4-8.7 1.4 0 0-4.9 0-4.9 3.2 0 3.1-5.4 3-0.2 6.4 5.2 3.5 5.8 4.8 5.8 4.8 0 0-2.8 3.9-2.8 4.9 0 1 2.2 3.4 3.1 4 0.9 0.5 3.9-1.9 3.9-1.9l1.7-9.3c0 0-0.7-4.2 0.8-4.5 1.4-0.3 6.8-1.4 6.8-1.4l-1-6.8c0 0 0.7-3.8 1.8-3.4 1.2 0.5 7.4 4 7.4 4l2.9-5.4c0 0 4.5 4.8 4.8 6.4 0.3 1.5-4.2 9.8-0.2 11.4 4.1 1.6 12.6 0.3 13.6 2.7 1.1 2.5 0.3 7.4 0.3 7.4 0 0 3.2 2.8 2.8 4.1-0.5 1.3-9.6 3.4-9.6 3.4 0 0-1.7 0.6-2.4-2.6-0.8-3.1-1.9-5.8-3-5.2-1.1 0.6-12.8 4.4-12.7 5.4 0.2 1 3.1 4 3.2 4.6 0.2 0.6-7.8 5.1-15.5 13.2-7.8 8.1-8.1 11-4.9 14.5 3.2 3.4 4.1 5 0.3 8.7-3.8 3.7-9.8 8-10.8 9.5-1.1 1.4-5.1 5.4-3.1 8.2 2 2.8 3.1 10.6 3.1 10.6 0 0-3.6 0.4-3.7 0.9 0 0.6-8.1 2-8.1-0.9 0-2.9 5.8-13.3 0-13.5-5.8-0.1-12.7 3.4-13.6 8.8-0.8 5.3-6.4 6.3-4.6 13.8 1.7 7.4 2 9.4 4.6 8.9 2.6-0.6 0.8-9.1 5.6-8.9 4.8 0.2 11.4-1 8.9 3.2-2.6 4.2-9.3 3.3-8.9 5.8 0.5 2.5 1.4 5.3 1.4 5.3 0 0-5.4 6.2 3.1 3.4 8.4-2.8 9.9-3.3 11.3 2 1.5 5.4-2.6 10.9-2.6 10.9 0 0 1.8 2.4 5.3 3 3.4 0.7 8.9 5.6 11.2 4.2 2.4-1.4 5.5-12.7 9.1-12.1 3.7 0.5 5.5 7.9 5.5 7.9 0 0 3.1-5.3 6.4-3 3.3 2.3 2.4 7.8 6.8 4.6 4.4-3.2 9.7-2.2 11.1-1.7 1.4 0.6 5.4 4 6.3 5.8 0.9 1.7 2.7 3.2 7.1 3.9 4.5 0.6-0.3-0.2 9.7 0.7 10 0.8 14.6 7.1 16.1 9.1 1.4 2-0.9 7.7 3.8 7.6 4.8-0.1 7.2-6 10-3 2.9 2.9 2.4 3.7 4.2 3 1.7-0.7-1.1-3.4 9.3-3.7 10.4-0.3 10.2-2.2 15.2-0.9 5 1.3 10.9 0.2 12 2.8 1 2.6-4 14.3-8.1 17.2z"/>
								<path id="&lt;Path&gt;" class="s12" d="m92.6 680.9c0 0-1.1-7.7 5-3.2 6.1 4.5 8.7 2.7 13 5.7 4.4 2.9 6.1 6.6 8 6.4 2-0.3 3.9-4.1 12.1-1.5 8.1 2.5 9.4 9 9.2 9.9-0.2 0.9-3.7 3.9-5.4 3.3-1.7-0.7-4.7-0.2-6.4-3.9-1.6-3.7-4.9-4.6-5.6-2.4-0.6 2.2-5.6-1.1-2.6 5.4 3.1 6.5-1.5 7.6-2.1 7.8-0.7 0.3-3.9-0.2-3.1-3.9 0.9-3.7-2.7-8.8-2.7-8.8 0 0-2.3 2.3-2.3 3.8 0 1.6-5.8 3.7-6 1.1-0.3-2.6 2.1-7.9 2.3-8.7 0.3-0.8-3.9-3.6-3.9-3.6 0 0-3.7-4.6-5.6-4.2-2 0.5-4 0.9-4 0.9 0 0-1.6-2.6 0.1-4.1z"/>
							</g>
							<path id="&lt;Path&gt;" class="s12" d="m117.8 624.8c-1.2 2.6-1.5 5.4-1.8 8.2q-1.4 12.8-2.8 25.5c-0.4 3.6-0.5 7.9 2.6 9.8 4.1 2.7 9.6-1.8 14.3-0.3 3.3 1.1 5 4.8 5.6 8.2 0.7 3.4 1 7.2 3.1 10 3.9 5.3 12.7 4.9 16.6 10.3 3.1 4.2 2.6 11.3 7.4 13.4 3.8 1.7 8.3-1.6 9.1-5.6 0.7-4.1-1.5-8.1-4.4-11-2.9-2.8-6.6-4.8-10-7.2-3.3-2.3-6.5-5.3-7.7-9.2-2-7 2.5-15.6-2-21.3-2.1-2.7-5.8-3.8-9.2-4.4-3.4-0.6-7.1-1-10-2.9-3-1.8-5-5.8-3.4-8.9 1.5-2.8 5.2-3.6 8.4-3.6 3.2-0.1 6.6 0.3 9.4-1.2 3.6-2 4.8-7.2 2.6-10.6-2.3-3.5-7.2-4-10.7-2-3-8.2-14-3.3-17.1 2.8z"/>
						</g>
						<g id="&lt;Group&gt;" style="opacity: .4;mix-blend-mode: multiply">
							<path id="&lt;Path&gt;" class="s7" d="m85.4 568.8c-6.1 7.3-11.2 15-15.3 23.1q-0.7 1.2-1.2 2.4c-2.7 5.5-5 11.1-6.8 16.9-2.6 8.5-4.4 17.2-5.1 25.9-1.5 16.2 0.2 32.6 5.1 48.1 6.8 21.7 19.6 41.8 38.3 57.5q6.8 5.7 14.1 10.3c8.9 5.6 18.3 9.9 28 13 14.5 4.6 29.6 6.4 44.6 5.5-58.3-18.3-124.4-116.8-75.4-176.2 48.9-59.5 122.2-58 122.2-58h0.1c-34-16.5-73.5-16.4-107-0.6-15.5 7.4-29.8 18.1-41.6 32.1z"/>
						</g>
						<g id="&lt;Group&gt;" style="opacity: .5;mix-blend-mode: soft-light">
							<path id="&lt;Path&gt;" class="s2" d="m172 782.1c5.7 0.4 11.3 0.4 16.9 0.1 35.3-2.1 69.7-18.1 94.2-47.2q0.5-0.6 1-1.2c14.3-17.4 23.4-37.3 27.6-57.9q2-9.7 2.5-19.4c0.7-13-0.5-25.9-3.5-38.5-6.4-26.7-21.1-51.7-43.8-70.8 0 0 43.8 70.8 23.8 141.2-12.9 45.5-62.5 87.5-118.7 93.7z"/>
						</g>
						<g id="&lt;Group&gt;" style="opacity: .5;mix-blend-mode: soft-light">
							<path id="&lt;Path&gt;" class="s2" d="m192.8 644.1c-16.3 31.9-13.7 65.7 5.6 75.6 19.4 9.9 48.3-8 64.5-39.9 16.3-31.9 13.8-65.8-5.6-75.6-19.4-9.9-48.3 8-64.5 39.9z"/>
						</g>
						<g id="&lt;Group&gt;" style="opacity: .6;mix-blend-mode: soft-light">
							<path id="&lt;Path&gt;" class="s2" d="m320.9 558.6l-8.3 5.4c-21.5-25.9-162.6-179.9-296 59.5 1.2-8.3 3.1-16.4 5.6-24.4 2.5-7.8 5.5-15.4 9.1-22.8q0.7-1.3 1.4-2.7l0.2-0.5c5.7-11.1 12.7-21.5 20.8-31.2 15.5-18.5 34.4-33 56.1-43.3 45.4-21.5 99.3-21.2 144.3 0.8 12.3 6 23.8 13.5 34.3 22.3 12.6 10.7 23.6 23 32.5 36.9z"/>
						</g>
					</g>
				</g>
			</g>
			<g id="&lt;Group&gt;">
				<g id="&lt;Group&gt;" style="opacity: .2;mix-blend-mode: multiply">
					<path id="&lt;Path&gt;" class="s0" d="m1483.4 210.9v-2.2h-19.2c0 0 5.9-14.5-4.6-18.5-8.3-3.2-27.4-2.7-25.5 17.3l-16.8 1.2-0.4 2.2h-83.5l-21.3 101.6q-4.4 3.9-8.7 7.7c-0.1 0-0.1 0.1-0.2 0.2-41.9 35.9-83 55.2-83 55.2 8.7 35.5 33.4 60 62.5 76.8l-20 95.3 252.7 15.6 56.5-352.4z"/>
				</g>
				<g id="&lt;Group&gt;">
					<path id="&lt;Path&gt;" class="s6" d="m1286.2 227.9h238.6l-56.5 352.3-252.7-15.6z"/>
					<path id="&lt;Path&gt;" class="s9" d="m1370.2 225.7l-4.3 24.4 70.4 3.2v-27.6h-19.2c0 0 5.9-14.6-4.6-18.6-8.4-3.2-27.4-2.7-25.5 17.3z"/>
					<g id="&lt;Group&gt;">
						<path id="&lt;Path&gt;" class="s13" d="m1486 245.8l-59.1 312.4-174.5-19.7 86.9-291.2z"/>
						<g id="&lt;Group&gt;">
							<g id="&lt;Group&gt;">
								<path id="&lt;Path&gt;" class="s2" d="m1486 245.8c0 0-53.6 205.8-112.2 260.3 0 0-31.8-0.9-70.4-10.6q0 0 0 0c-51.6-12.8-115.1-41-130.3-103 0 0 41-19.3 83-55.2 0.1-0.1 0.1-0.1 0.1-0.2 27.5-23.5 55.3-54.2 72.1-91.3z"/>
							</g>
							<g id="&lt;Group&gt;" style="opacity: .4;mix-blend-mode: multiply">
								<path id="&lt;Path&gt;" class="s9" d="m1303.4 495.5q0 0 0 0c-51.6-12.8-115.1-41-130.3-103 0 0 41-19.3 83-55.2-4.3 4.5-46.9 53.8 47.3 158.2z"/>
							</g>
							<g id="&lt;Group&gt;" style="opacity: .4;mix-blend-mode: multiply">
								<g id="&lt;Group&gt;">
									<g id="&lt;Group&gt;">
										<path id="&lt;Path&gt;" class="s9" d="m1454.7 273.5l-117.4-3.9 0.1-2.3 117.4 3.9z"/>
									</g>
									<g id="&lt;Group&gt;">
										<path id="&lt;Path&gt;" class="s9" d="m1373.4 313.3c-31.8 0-59.6-1.4-60.1-1.4l0.1-2.3c1.1 0 104.7 5.2 141-4.6l0.6 2.2c-17.8 4.8-51.5 6.1-81.6 6.1z"/>
									</g>
									<g id="&lt;Group&gt;">
										<path id="&lt;Path&gt;" class="s9" d="m1357.3 349.1c-42.3 0-78.8-5.2-79.4-5.3l0.3-2.3c1 0.2 103.4 14.9 163.9-5.3l0.7 2.2c-24.8 8.3-56.5 10.7-85.5 10.7z"/>
									</g>
									<g id="&lt;Group&gt;">
										<path id="&lt;Path&gt;" class="s9" d="m1332.5 397.3c-30.7 0-61.4-4.1-91-12.3l0.6-2.2c54 14.9 111.4 16.2 166 3.7l0.5 2.3c-25 5.7-50.5 8.5-76.1 8.5z"/>
									</g>
									<g id="&lt;Group&gt;">
										<path id="&lt;Path&gt;" class="s9" d="m1364.4 451.6c-50.4-0.7-101-12.9-146.2-35.4l1-2c44.9 22.3 95.1 34.4 145.3 35.1z"/>
									</g>
								</g>
							</g>
							<g id="&lt;Group&gt;">
								<g id="&lt;Group&gt;">
									<path id="&lt;Compound Path&gt;" fill-rule="evenodd" class="s14" d="m1348.5 296.4l-8.3-2.4 13.4-22.8 12.2 3.5-0.7 26.4-8.3-2.4 0.2-4.1-6.5-1.9zm8.9-15.9l-3.6 6.5 3.6 1 0.4-7.3z"/>
									<path id="&lt;Compound Path&gt;" class="s14" d="m1370.2 292.4l1.6-5.7 6.1 1.7 1.7-6 5.7 1.6-1.8 6.1 6.2 1.7-1.6 5.7-6.2-1.8-1.7 6.2-5.7-1.7 1.8-6.1z"/>
								</g>
								<g id="&lt;Group&gt;">
									<path id="&lt;Path&gt;" class="s14" d="m1378.7 316.4q-1.5 0-2.9 0c-10.2-0.3-20.9-0.9-30.3-5.4-8.6-4.1-17.3-13.3-17.2-24.3 0.1-8.7 6-17.2 14.6-21.1 7.7-3.6 17.2-3.4 26 0.3 0.4 0.2 0.5 0.6 0.4 1-0.2 0.4-0.6 0.5-1 0.4-8.3-3.6-17.6-3.7-24.8-0.4-8.1 3.7-13.6 11.6-13.7 19.8-0.1 10.4 8.1 19 16.4 23 9.1 4.3 19.6 4.9 29.6 5.2 5.3 0.1 10 0.1 14.1-1.9 7.1-3.5 10.9-12.9 8.5-21.5-2-7.5-8.1-14.1-16.7-18.1-7.3-3.4-15.3-4.7-25-5.7-0.4 0-0.7-0.4-0.7-0.8 0-0.4 0.4-0.7 0.8-0.6 9.9 0.9 18 2.2 25.5 5.8 9 4.2 15.4 11.1 17.6 19 2.5 9.2-1.6 19.4-9.4 23.2-3.6 1.7-7.6 2.1-11.8 2.1z"/>
								</g>
							</g>
						</g>
					</g>
				</g>
			</g>
			<g id="&lt;Group&gt;">
				<g id="&lt;Group&gt;" style="opacity: .2;mix-blend-mode: multiply">
					<path id="&lt;Path&gt;" class="s0" d="m1546.8 513c-8.4 2.8-16.5 6.3-24.5 10.3l-2.1-12.3c-89.1 29.2-139.1 128.2-139.1 128.2l-28.5 8.7c-113.9-47.9-200.8-24.3-200.8-24.3l7.2 23.7 0.1 0.1c-5.4 1.3-10.7 2.8-16 4.5l91 183.3 20.3 40.8 36.3-0.1 18.7-0.1h4.9l21.4-0.1h4.7l77.2-0.3 42.7-13 135-110.1z"/>
				</g>
				<g id="&lt;Group&gt;">
					<g id="&lt;Group&gt;">
						<path id="&lt;Path&gt;" class="s2" d="m1110.6 632.5l-7.3-23.7c0 0 87-23.7 200.9 24.2l28.4-8.7c0 0 50.1-99 139.2-128.1l6 35.3-129.9 119.3-43.6 18.7z"/>
					</g>
					<path id="&lt;Path&gt;" class="s9" d="m1498.3 498.1l48.5 239.4-134.9 110-9.2-28.2-60.7-187.8c0 0 49.3-75.2 118.4-115.8 12.1-7.1 24.8-13.2 37.9-17.6z"/>
					<g id="&lt;Group&gt;">
						<path id="&lt;Compound Path&gt;" fill-rule="evenodd" class="s2" d="m1421.2 815.9l-58.7-181.3 1.1-1.6c16.6-22.7 61.2-78.5 116.6-107l4.4-2.2 41.8 206.4zm-50.4-180l54.1 167.3 93.3-76-39-192.3c-50.8 27.7-91.8 78.5-108.4 101z"/>
					</g>
					<g id="&lt;Group&gt;">
						<path id="&lt;Path&gt;" class="s15" d="m1411.9 847.5l-42.7 13.1-8.8-26.1-63.5-189.2 45.1-13.8 60.7 187.8z"/>
					</g>
					<g id="&lt;Group&gt;" style="opacity: .6;mix-blend-mode: soft-light">
						<path id="&lt;Path&gt;" class="s2" d="m1397.5 840.9l-17.5 5.3-7.2-22.4-52-162.6 18.5-5.7 50.6 161.1z"/>
					</g>
					<path id="&lt;Path&gt;" class="s9" d="m1369.2 860.6l-77.3 0.2-20 0.1h-10.9l-18.8 0.1-36.3 0.1-20.2-40.7-91-183.3c11.5-3.9 23.3-6.6 35.2-8.5 11.8-1.8 23.7-2.8 35.5-3 5.9-0.2 11.8-0.2 17.6 0 6.6 0.1 13 0.5 19.3 1.1 53 4.2 94.6 18.6 94.6 18.6l63.5 189.2z"/>
					<g id="&lt;Group&gt;">
						<path id="&lt;Compound Path&gt;" fill-rule="evenodd" class="s2" d="m1351.6 844.2l-135.7-4-92.3-189.3 4.8-0.9c61.3-11.1 130.7 6.1 157.7 14.1l1.8 0.5zm-130.9-11.4l120.2 3.6-58.7-165.7c-26.9-7.8-90.4-23.1-147.6-14.2z"/>
					</g>
					<g id="&lt;Group&gt;" style="opacity: .6;mix-blend-mode: soft-light">
						<path id="&lt;Path&gt;" class="s2" d="m1390.9 646.4c0 0 53.4-64 81.6-73.6l9.2 45.8-79.1 66.1z"/>
					</g>
					<g id="&lt;Group&gt;" style="opacity: .4;mix-blend-mode: multiply">
						<path id="&lt;Path&gt;" class="s9" d="m1498.3 498.1l48.5 239.4-134.9 110-42.7 13.1-163.3 0.5-20.2-40.7c71.9 53.8 165.6 17.8 174.7 14.1 0.5-0.2 0.7-0.3 0.7-0.3l39.2-11.9c0.9-1 1.6-2 2.4-3 89.6-108.8 67.4-257.8 57.7-303.6 12.1-7.1 24.8-13.2 37.9-17.6z"/>
					</g>
					<g id="&lt;Group&gt;" style="opacity: .6;mix-blend-mode: soft-light">
						<path id="&lt;Path&gt;" class="s2" d="m1165.4 625.6l95.6 235.3-18.8 0.1-112.3-232.4c11.8-1.8 23.7-2.8 35.5-3z"/>
					</g>
					<g id="&lt;Group&gt;" style="opacity: .6;mix-blend-mode: soft-light">
						<path id="&lt;Path&gt;" class="s2" d="m1291.9 860.8l-20 0.1-88.9-235.3c6.6 0.1 13 0.5 19.3 1.1z"/>
					</g>
				</g>
			</g>
			<g id="&lt;Group&gt;">
				<g id="&lt;Group&gt;" style="opacity: .2;mix-blend-mode: multiply">
					<path id="&lt;Path&gt;" class="s0" d="m1280.7 933.1l-316.8 59.3-35.3-188.8 15.4-2.9 27.1 144.7 1.6 8.6c2.8 14.5 16.8 24.1 31.4 21.4 7.3-1.4 13.3-5.5 17.2-11.2 3.8-5.7 5.6-12.9 4.2-20.1l-28.7-153.2 45.9-8.6 27.1 144.6 1.6 8.6c2.7 14.5 16.7 24.1 31.3 21.4 7.3-1.4 13.3-5.5 17.2-11.2 3.9-5.7 5.6-12.8 4.2-20.1l-28.7-153.2 45.9-8.6 27.1 144.6 1.6 8.6c2.7 14.6 16.8 24.2 31.3 21.4 7.3-1.3 13.4-5.5 17.3-11.2 3.8-5.7 5.5-12.8 4.2-20.1l-28.7-153.2 16-3 35.3 188.8 21.2-4-35.4-188.8 14.1-2.6-2.9-15.3-51.2 9.6-3.1-16.4 12.9-2.4-2.4-30.3-84.2 15.8 9.4 29 11.6-2.2 3 16.4-45.8 8.6-3.1-16.4 12.9-2.4-2.5-30.3-84.2 15.8 9.4 29 11.6-2.2 3.1 16.4-45.9 8.5-3-16.3 12.9-2.4-2.5-30.3-84.2 15.8 9.4 28.9 11.6-2.1 3 16.3-47.8 9 2.9 15.3 11.3-2.1 35.3 188.8 14.3-2.7-25.6 4.8 8.9 47.1 349.1-65.4z"/>
				</g>
				<g id="&lt;Group&gt;">
					<g id="&lt;Group&gt;">
						<path id="&lt;Path&gt;" class="s2" d="m961.7 724.3l2.4 30.3-77.2 14.4-9.4-28.9z"/>
						<path id="&lt;Path&gt;" class="s2" d="m946.9 733.7l39 208.2c1.3 7.2-0.4 14.4-4.2 20.1-3.9 5.6-10 9.8-17.2 11.2-14.6 2.7-28.7-6.9-31.4-21.4l-39-208.2z"/>
						<path id="&lt;Path&gt;" class="s16" d="m962.9 964.7c-9.9 1.9-19.5-4.7-21.3-14.5l-26.2-139.7 35.8-6.7 26.2 139.7c1.8 9.8-4.7 19.4-14.5 21.2z"/>
						<g id="&lt;Group&gt;">
							<path id="&lt;Path&gt;" class="s12" d="m915.4 810.5l0.7 3.8 17.9-3.4-0.7-3.8z"/>
							<path id="&lt;Path&gt;" class="s12" d="m923.1 851.7l0.8 3.8 17.9-3.4-0.8-3.7z"/>
							<path id="&lt;Path&gt;" class="s12" d="m930.9 892.9l0.7 3.8 17.9-3.4-0.7-3.7z"/>
							<path id="&lt;Path&gt;" class="s12" d="m938.6 934.1l0.7 3.8 17.9-3.3-0.7-3.8z"/>
						</g>
						<path id="&lt;Path&gt;" class="s17" d="m951.2 757l34.7 184.9c1.3 7.2-0.4 14.4-4.2 20.1-3.9 5.6-10 9.8-17.2 11.2-14.6 2.7-28.7-6.9-31.4-21.4l-1.6-8.6c44.4-40.9 6.3-184.4 6.3-184.4z"/>
					</g>
					<g id="&lt;Group&gt;">
						<path id="&lt;Path&gt;" class="s2" d="m1060.3 705.8l2.5 30.3-77.3 14.4-9.4-28.9z"/>
						<path id="&lt;Path&gt;" class="s2" d="m1045.5 715.3l39 208.1c1.4 7.3-0.3 14.4-4.2 20.1-3.9 5.7-9.9 9.8-17.2 11.2-14.6 2.7-28.6-6.9-31.3-21.4l-39.1-208.2z"/>
						<path id="&lt;Path&gt;" class="s9" d="m1061.5 946.2c-9.9 1.9-19.4-4.6-21.3-14.5l-16.2-86.5 35.8-6.7 16.2 86.5c1.9 9.8-4.6 19.4-14.5 21.2z"/>
						<g id="&lt;Group&gt;">
							<path id="&lt;Path&gt;" class="s12" d="m1014.1 792l0.7 3.8 17.9-3.4-0.7-3.7z"/>
							<path id="&lt;Path&gt;" class="s12" d="m1021.8 833.2l0.7 3.8 17.9-3.4-0.7-3.7z"/>
							<path id="&lt;Path&gt;" class="s12" d="m1029.5 874.4l0.7 3.8 17.9-3.3-0.7-3.8z"/>
							<path id="&lt;Path&gt;" class="s12" d="m1037.2 915.7l0.7 3.7 17.9-3.3-0.7-3.8z"/>
						</g>
						<g id="&lt;Group&gt;" style="opacity: .4;mix-blend-mode: multiply">
							<path id="&lt;Path&gt;" class="s9" d="m1049.9 738.5l34.6 184.9c1.4 7.3-0.3 14.4-4.2 20.1-3.9 5.7-9.9 9.8-17.2 11.2-14.6 2.7-28.6-6.9-31.3-21.4l-1.7-8.6c44.5-40.9 6.3-184.4 6.3-184.4z"/>
						</g>
					</g>
					<g id="&lt;Group&gt;">
						<path id="&lt;Path&gt;" class="s2" d="m1159 687.3l2.4 30.3-77.2 14.5-9.5-29z"/>
						<path id="&lt;Path&gt;" class="s2" d="m1144.2 696.8l39 208.1c1.3 7.3-0.4 14.4-4.3 20.1-3.8 5.7-9.9 9.9-17.2 11.2-14.6 2.8-28.6-6.8-31.3-21.4l-39-208.1z"/>
						<g id="&lt;Group&gt;">
							<path id="&lt;Path&gt;" class="s6" d="m1160.1 927.7c-9.8 1.9-19.4-4.6-21.2-14.5l-26.2-139.7 35.8-6.7 26.2 139.7c1.8 9.9-4.7 19.4-14.6 21.2z"/>
						</g>
						<g id="&lt;Group&gt;">
							<path id="&lt;Path&gt;" class="s12" d="m1112.7 773.5l0.7 3.8 17.9-3.4-0.7-3.7z"/>
							<path id="&lt;Path&gt;" class="s12" d="m1120.4 814.7l0.7 3.8 17.9-3.3-0.7-3.8z"/>
							<path id="&lt;Path&gt;" class="s12" d="m1128.1 856l0.8 3.7 17.9-3.3-0.8-3.8z"/>
							<path id="&lt;Path&gt;" class="s12" d="m1135.9 897.2l0.7 3.7 17.9-3.3-0.7-3.8z"/>
						</g>
						<g id="&lt;Group&gt;" style="opacity: .3;mix-blend-mode: multiply">
							<path id="&lt;Path&gt;" class="s7" d="m1148.5 720l34.7 184.9c1.3 7.3-0.4 14.4-4.3 20.1-3.8 5.7-9.9 9.9-17.2 11.2-14.6 2.8-28.6-6.8-31.3-21.4l-1.6-8.6c44.4-40.9 6.2-184.4 6.2-184.4z"/>
						</g>
					</g>
					<g id="&lt;Group&gt;">
						<path id="&lt;Path&gt;" class="s6" d="m1249.9 978l-349.2 65.4-8.8-47.1 349.1-65.4z"/>
					</g>
					<g id="&lt;Group&gt;">
						<path id="&lt;Path&gt;" class="s6" d="m1205.7 742.1l-349.2 65.4-2.8-15.3 349.1-65.4z"/>
					</g>
					<path id="&lt;Path&gt;" class="s6" d="m924.3 990.2l-21.1 4-35.4-188.8 21.2-4z"/>
					<path id="&lt;Path&gt;" class="s6" d="m1226.9 933.5l-21.1 4-35.3-188.8 21.1-4z"/>
				</g>
			</g>
		</g>
	</g>
	<g id="TEXTS">
		<g id="&lt;Group&gt;">
		</g>
		<g id="&lt;Group&gt;">
		</g>
	</g>
</svg>